<svg width="43" height="43" viewBox="0 0 43 43" fill="none" xmlns="http://www.w3.org/2000/svg">
<g id="_&#228;&#184;&#173;&#232;&#139;&#177; 1" clip-path="url(#clip0_1349_144098)">
<path id="Vector" d="M24.5714 33.7857H6.14286C5.73951 33.7857 5.34012 33.7063 4.96747 33.5519C4.59483 33.3976 4.25624 33.1713 3.97103 32.8861C3.68582 32.6009 3.45958 32.2623 3.30523 31.8897C3.15087 31.517 3.07143 31.1176 3.07143 30.7143V6.14286C3.07143 5.32826 3.39502 4.54703 3.97103 3.97103C4.54703 3.39502 5.32826 3.07143 6.14286 3.07143H30.7143C31.1176 3.07143 31.517 3.15087 31.8897 3.30523C32.2623 3.45958 32.6009 3.68582 32.8861 3.97103C33.1713 4.25624 33.3976 4.59483 33.5519 4.96747C33.7063 5.34012 33.7857 5.73951 33.7857 6.14286V18.6743C33.7858 19.0815 33.9476 19.4721 34.2356 19.76C34.5236 20.048 34.9142 20.2097 35.3214 20.2097C35.7287 20.2097 36.1193 20.048 36.4073 19.76C36.6952 19.4721 36.8571 19.0815 36.8571 18.6743V6.14286C36.8571 5.33617 36.6983 4.53737 36.3895 3.79209C36.0808 3.0468 35.6284 2.36962 35.0579 1.7992C34.4875 1.22878 33.8103 0.776305 33.0651 0.467597C32.3198 0.15889 31.521 -5.51449e-09 30.7143 0L6.14286 0C4.51367 0 2.95121 0.647192 1.7992 1.7992C0.647192 2.95121 0 4.51367 0 6.14286L0 30.7143C-5.51449e-09 31.521 0.15889 32.3198 0.467597 33.0651C0.776305 33.8103 1.22878 34.4875 1.7992 35.0579C2.36962 35.6284 3.0468 36.0808 3.79209 36.3895C4.53737 36.6983 5.33617 36.8571 6.14286 36.8571H24.5714C24.9787 36.8571 25.3692 36.6952 25.6572 36.4073C25.9451 36.1193 26.1069 35.7287 26.1069 35.3214C26.1069 34.9142 25.9451 34.5236 25.6572 34.2356C25.3692 33.9476 24.9787 33.7858 24.5714 33.7857ZM6.60357 24.1107C6.45893 23.9713 6.34364 23.8044 6.26452 23.6198C6.18539 23.4352 6.14403 23.2366 6.14286 23.0357V10.75C6.15072 10.3452 6.31504 9.9591 6.60136 9.67279C6.88767 9.38647 7.27374 9.22215 7.67857 9.21429H16.8929C17.3002 9.21429 17.6908 9.37608 17.9788 9.66409C18.2668 9.95209 18.4286 10.3427 18.4286 10.75C18.4286 11.1573 18.2668 11.5479 17.9788 11.8359C17.6908 12.1239 17.3002 12.2857 16.8929 12.2857H9.21429V15.3571H16.8929C17.3001 15.3572 17.6907 15.519 17.9786 15.807C18.2666 16.095 18.4283 16.4856 18.4283 16.8929C18.4283 17.3001 18.2666 17.6907 17.9786 17.9787C17.6907 18.2667 17.3001 18.4285 16.8929 18.4286H9.21429V21.5H16.8929C17.3001 21.5001 17.6907 21.6619 17.9786 21.9499C18.2666 22.2379 18.4283 22.6285 18.4283 23.0357C18.4283 23.443 18.2666 23.8335 17.9786 24.1215C17.6907 24.4095 17.3001 24.5714 16.8929 24.5714H7.67857C7.47771 24.5703 7.27911 24.5289 7.09449 24.4498C6.90986 24.3706 6.74294 24.2554 6.60357 24.1107ZM21.5 23.1279V15.7257C21.5 14.7429 22.0221 14.19 22.9436 14.1593C23.1074 14.151 23.2713 14.1757 23.4255 14.2318C23.5797 14.2879 23.7211 14.3744 23.8413 14.486C23.9616 14.5977 24.0582 14.7323 24.1256 14.8819C24.193 15.0315 24.2297 15.1931 24.2336 15.3571C24.5362 14.9534 24.9393 14.6361 25.4027 14.4367C25.8662 14.2373 26.3738 14.1628 26.875 14.2207C27.3656 14.1825 27.8588 14.2464 28.3235 14.4083C28.7882 14.5701 29.2143 14.8265 29.575 15.1612C29.9357 15.496 30.2231 15.9018 30.4192 16.3531C30.6153 16.8044 30.7158 17.2915 30.7143 17.7836V23.1279C30.7245 23.3281 30.6909 23.5282 30.6161 23.7142C30.5412 23.9003 30.4267 24.0678 30.2806 24.2051C30.1345 24.3425 29.9602 24.4464 29.7699 24.5096C29.5796 24.5729 29.3778 24.594 29.1786 24.5714C28.9804 24.5888 28.7807 24.5641 28.5927 24.499C28.4047 24.4338 28.2326 24.3297 28.0876 24.1934C27.9426 24.0571 27.828 23.8918 27.7514 23.7081C27.6748 23.5245 27.6378 23.3268 27.6429 23.1279V18.4286C27.6429 17.2307 27.2743 16.555 26.1071 16.4629C24.94 16.3707 24.5714 17.0464 24.5714 18.4286V23.1279C24.5765 23.3268 24.5395 23.5245 24.4629 23.7081C24.3863 23.8918 24.2717 24.0571 24.1267 24.1934C23.9817 24.3297 23.8096 24.4338 23.6216 24.499C23.4336 24.5641 23.2339 24.5888 23.0357 24.5714C22.8365 24.594 22.6347 24.5729 22.4444 24.5096C22.2541 24.4464 22.0798 24.3425 21.9337 24.2051C21.7876 24.0678 21.6731 23.9003 21.5982 23.7142C21.5233 23.5282 21.4898 23.3281 21.5 23.1279ZM35.3214 21.5C35.7287 21.5 36.1193 21.6618 36.4073 21.9498C36.6953 22.2378 36.8571 22.6284 36.8571 23.0357V41.4643C36.8571 41.8716 36.6953 42.2622 36.4073 42.5502C36.1193 42.8382 35.7287 43 35.3214 43C34.9141 43 34.5235 42.8382 34.2355 42.5502C33.9475 42.2622 33.7857 41.8716 33.7857 41.4643V23.0357C33.7857 22.6284 33.9475 22.2378 34.2355 21.9498C34.5235 21.6618 34.9141 21.5 35.3214 21.5ZM29.4857 27.6429H41.1571C41.3992 27.6429 41.6388 27.6905 41.8624 27.7831C42.086 27.8757 42.2891 28.0115 42.4602 28.1826C42.6314 28.3537 42.7671 28.5569 42.8597 28.7805C42.9523 29.0041 43 29.2437 43 29.4857V35.0143C43 35.2563 42.9523 35.4959 42.8597 35.7195C42.7671 35.9431 42.6314 36.1463 42.4602 36.3174C42.2891 36.4885 42.086 36.6242 41.8624 36.7169C41.6388 36.8095 41.3992 36.8571 41.1571 36.8571H29.4857C29.2437 36.8571 29.0041 36.8095 28.7805 36.7169C28.5569 36.6242 28.3537 36.4885 28.1826 36.3174C28.0115 36.1463 27.8757 35.9431 27.7831 35.7195C27.6905 35.4959 27.6429 35.2563 27.6429 35.0143V29.4857C27.6429 29.2437 27.6905 29.0041 27.7831 28.7805C27.8757 28.5569 28.0115 28.3537 28.1826 28.1826C28.3537 28.0115 28.5569 27.8757 28.7805 27.7831C29.0041 27.6905 29.2437 27.6429 29.4857 27.6429ZM31.3286 30.7143C31.2479 30.7143 31.168 30.7302 31.0935 30.761C31.019 30.7919 30.9512 30.8372 30.8942 30.8942C30.8372 30.9512 30.7919 31.019 30.761 31.0935C30.7302 31.168 30.7143 31.2479 30.7143 31.3286V33.1714C30.7143 33.2521 30.7302 33.332 30.761 33.4065C30.7919 33.481 30.8372 33.5488 30.8942 33.6058C30.9512 33.6628 31.019 33.7081 31.0935 33.739C31.168 33.7698 31.2479 33.7857 31.3286 33.7857H39.3143C39.395 33.7857 39.4748 33.7698 39.5494 33.739C39.6239 33.7081 39.6916 33.6628 39.7486 33.6058C39.8057 33.5488 39.8509 33.481 39.8818 33.4065C39.9127 33.332 39.9286 33.2521 39.9286 33.1714V31.3286C39.9286 31.2479 39.9127 31.168 39.8818 31.0935C39.8509 31.019 39.8057 30.9512 39.7486 30.8942C39.6916 30.8372 39.6239 30.7919 39.5494 30.761C39.4748 30.7302 39.395 30.7143 39.3143 30.7143H31.3286Z" fill="#EAE2B6"/>
</g>
<defs>
<clipPath id="clip0_1349_144098">
<rect width="43" height="43" fill="white"/>
</clipPath>
</defs>
</svg>
