<svg width="47" height="47" viewBox="0 0 47 47" fill="none" xmlns="http://www.w3.org/2000/svg">
<g id="vip-2 1">
<path id="Vector" d="M34.2956 41.1249H12.705C10.5753 41.1249 8.81282 39.6562 8.37219 37.5999L2.93782 10.5749C2.79094 9.9874 3.08469 9.32646 3.67219 9.03271C4.18626 8.73896 4.92063 8.8124 5.36126 9.17959L14.4675 16.964L22.3253 6.4624C22.9128 5.72803 24.0878 5.72803 24.6753 6.4624L32.5331 16.964L41.6394 9.17959C42.08 8.73896 42.8144 8.73896 43.3284 9.03271C43.8425 9.32646 44.1363 9.9874 44.0628 10.5749L38.6284 37.5999C38.1878 39.6562 36.4253 41.1249 34.2956 41.1249ZM6.68313 14.1733L11.2363 37.0124C11.3831 37.6733 11.9706 38.1874 12.705 38.1874H34.2956C35.03 38.1874 35.6175 37.6733 35.7644 37.0124L40.3175 14.1733L33.2675 20.1952C32.9738 20.489 32.5331 20.5624 32.1659 20.5624C31.7988 20.489 31.3581 20.3421 31.1378 19.9749L23.5003 9.76709L15.8628 19.9749C15.6425 20.2687 15.2753 20.489 14.8347 20.5624C14.4675 20.6358 14.0269 20.489 13.7331 20.1952L6.68313 14.1733Z" fill="#004A42"/>
<path id="Vector_2" d="M23.4999 33.7812C22.9858 33.7812 22.4718 33.4874 22.2515 33.0468L17.8452 25.703C17.4046 25.0421 17.6249 24.0874 18.3593 23.7202C19.0202 23.2796 19.9749 23.4999 20.3421 24.2343L23.4999 29.4483L26.6577 24.2343C27.0983 23.5733 27.9796 23.2796 28.6405 23.7202C29.3015 24.1608 29.5952 25.0421 29.1546 25.703L24.7483 33.0468C24.528 33.4874 24.014 33.7812 23.4999 33.7812Z" fill="#004A42"/>
</g>
</svg>
