<svg width="52" height="74" viewBox="0 0 52 74" fill="none" xmlns="http://www.w3.org/2000/svg">
<g id="GP 1">
<g id="Group">
<g id="Clip path group">
<mask id="mask0_1349_144529" style="mask-type:luminance" maskUnits="userSpaceOnUse" x="2" y="12" width="48" height="50">
<g id="SVGID_2_">
<path id="Vector" d="M49.3947 12.6642H2.60449V61.3348H49.3947V12.6642Z" fill="white"/>
</g>
</mask>
<g mask="url(#mask0_1349_144529)">
<path id="Vector_2" d="M48.0774 43.3141C47.0187 42.8843 45.8149 43.3976 45.3843 44.4603C41.9146 53.2413 32.8455 58.4167 23.5747 56.9066C14.3038 55.3965 7.3216 47.6061 6.78175 38.1721C6.78175 37.7203 6.74681 37.338 6.74681 36.9213C6.79922 26.4211 14.8192 17.7026 25.2195 16.8403C25.7699 16.8042 26.2826 16.5502 26.6451 16.1327C27.0077 15.7152 27.1911 15.1693 27.1527 14.6165C27.116 14.0601 26.8565 13.5424 26.4337 13.182C26.011 12.8216 25.4597 12.6502 24.9085 12.7056C12.3558 13.7305 2.66739 24.2483 2.60449 36.9213C2.60449 37.4074 2.60449 37.8944 2.63943 38.4156C3.45532 51.2381 14.005 61.2311 26.7744 61.276C27.2575 61.276 27.7414 61.276 28.2594 61.2408C37.5818 60.6501 45.7433 54.7346 49.2523 46.0231C49.4559 45.5072 49.4454 44.9314 49.2252 44.4225C49.0042 43.9145 48.591 43.5154 48.0774 43.3141Z" fill="#EAE2B6"/>
</g>
</g>
</g>
<path id="Vector_3" d="M25.8902 52.7649C25.3512 52.8018 24.8192 52.6277 24.4052 52.2788L16.9818 46.0249C16.1048 45.276 15.9965 43.954 16.7399 43.0715C17.4832 42.189 18.7979 42.08 19.6749 42.8281L25.9242 48.1089L42.739 33.8994C43.6186 33.191 44.8992 33.3202 45.6217 34.1895C46.3449 35.0588 46.2445 36.35 45.3972 37.0963L27.4101 52.2779C27.0328 52.5961 26.5558 52.7684 26.064 52.764H25.8902V52.7649Z" fill="#EAE2B6"/>
<g id="Group_2">
<path id="Vector_4" d="M21.554 37.9822C20.5835 37.9822 19.6707 37.7959 18.8146 37.4232C17.9585 37.0505 17.2108 36.5319 16.5705 35.8666C15.9302 35.202 15.4279 34.4294 15.0645 33.5478C14.7003 32.6662 14.5186 31.7169 14.5186 30.6999C14.5186 29.683 14.7003 28.7372 15.0645 27.8626C15.4288 26.988 15.9337 26.218 16.581 25.5535C17.2283 24.889 17.9856 24.374 18.8557 24.0074C19.7248 23.6409 20.6718 23.4581 21.6964 23.4581C22.8145 23.4581 23.8462 23.6752 24.7896 24.1085C25.733 24.5427 26.521 25.1668 27.1552 25.9798L25.8414 27.3018C25.3967 26.6514 24.8106 26.1521 24.0829 25.8067C23.3553 25.4613 22.5595 25.2881 21.6973 25.2881C20.6726 25.2881 19.7668 25.5184 18.978 25.9798C18.1892 26.4413 17.5759 27.0786 17.1383 27.8916C16.6998 28.7055 16.4814 29.6408 16.4814 30.6991C16.4814 31.7705 16.7041 32.7128 17.1488 33.5267C17.5934 34.3407 18.1927 34.9779 18.9483 35.4385C19.703 35.9 20.5591 36.1302 21.5156 36.1302C22.5123 36.1302 23.3719 35.9404 24.0934 35.5607C24.8141 35.181 25.367 34.6219 25.7514 33.8827C26.1357 33.1435 26.334 32.2381 26.348 31.1667L27.5002 32.021H21.4352V30.2517H28.3091V30.5365C28.3091 32.1775 28.0226 33.5505 27.4495 34.6553C26.8765 35.7611 26.0816 36.5917 25.0639 37.1472C24.0445 37.7045 22.8748 37.9822 21.554 37.9822Z" fill="#EAE2B6"/>
<path id="Vector_5" d="M30.834 37.7783V23.6611H32.7339V37.7783H30.834ZM32.1076 32.2865V30.6182H35.9285C36.4543 30.6182 36.9225 30.5101 37.3331 30.293C37.7437 30.0759 38.0678 29.7709 38.3036 29.378C38.5395 28.9851 38.6574 28.5166 38.6574 27.9743C38.6574 27.4319 38.5395 26.9643 38.3036 26.5705C38.0678 26.1776 37.7445 25.8718 37.3331 25.6555C36.9217 25.4384 36.4535 25.3303 35.9285 25.3303H32.1076V23.662H36.0298C36.892 23.662 37.6677 23.8387 38.3543 24.1912C39.0418 24.5436 39.5842 25.042 39.9817 25.6863C40.3791 26.3306 40.5783 27.0935 40.5783 27.9751C40.5783 28.8436 40.3791 29.6021 39.9817 30.2534C39.5842 30.9048 39.0418 31.4067 38.3543 31.7591C37.6668 32.1116 36.892 32.2883 36.0298 32.2883H32.1076V32.2865Z" fill="#EAE2B6"/>
</g>
</g>
</svg>
