<svg width="53" height="53" viewBox="0 0 53 53" fill="none" xmlns="http://www.w3.org/2000/svg">
<g id="&#232;&#174;&#176;&#229;&#189;&#149; 1">
<path id="Vector" d="M33.0449 15.4497H13.9463C13.5345 15.4497 13.1395 15.6133 12.8483 15.9045C12.5571 16.1957 12.3936 16.5906 12.3936 17.0024C12.3936 17.4143 12.5571 17.8092 12.8483 18.1004C13.1395 18.3916 13.5345 18.5552 13.9463 18.5552H33.0449C33.4567 18.5552 33.8517 18.3916 34.1429 18.1004C34.4341 17.8092 34.5977 17.4143 34.5977 17.0024C34.5977 16.5906 34.4341 16.1957 34.1429 15.9045C33.8517 15.6133 33.4567 15.4497 33.0449 15.4497ZM33.7167 27.9L34.445 27.1729C34.5588 26.9361 34.6107 26.6743 34.5958 26.4121C34.581 26.1498 34.4998 25.8956 34.3599 25.6732C34.22 25.4508 34.026 25.2676 33.796 25.1407C33.5661 25.0137 33.3076 24.9472 33.0449 24.9473H13.9463C13.5345 24.9473 13.1395 25.1109 12.8483 25.4021C12.5571 25.6932 12.3936 26.0882 12.3936 26.5C12.3936 26.9118 12.5571 27.3068 12.8483 27.5979C13.1395 27.8891 13.5345 28.0527 13.9463 28.0527H33.0449C33.2775 28.053 33.5071 28.0008 33.7167 27.9ZM27.8505 34.4448H13.9463C13.5345 34.4448 13.1395 34.6084 12.8483 34.8996C12.5571 35.1908 12.3936 35.5857 12.3936 35.9976C12.3936 36.4094 12.5571 36.8043 12.8483 37.0955C13.1395 37.3867 13.5345 37.5503 13.9463 37.5503H26.4168L27.8505 34.4448ZM32.2504 37.0472L31.1609 37.5503H33.0449C33.3366 37.5503 33.6224 37.4682 33.8696 37.3133C34.1168 37.1583 34.3153 36.937 34.4425 36.6744C34.5696 36.4119 34.6203 36.1189 34.5886 35.8289C34.5569 35.5389 34.4442 35.2637 34.2633 35.0349L32.2504 37.0472Z" fill="#EAE2B6"/>
<path id="Vector_2" d="M37.7832 31.5174V40.0605C37.7824 40.7329 37.5149 41.3775 37.0395 41.853C36.564 42.3284 35.9194 42.5959 35.2471 42.5967H11.749C11.0767 42.5959 10.4321 42.3284 9.95662 41.853C9.48118 41.3775 9.21371 40.7329 9.21289 40.0605V12.9395C9.21371 12.2671 9.48118 11.6225 9.95662 11.147C10.4321 10.6716 11.0767 10.4041 11.749 10.4033H35.2471C35.9194 10.4041 36.564 10.6716 37.0395 11.147C37.5149 11.6225 37.7824 12.2671 37.7832 12.9395V23.836L40.8887 20.7306V12.9395C40.887 11.4437 40.2921 10.0097 39.2345 8.95205C38.1768 7.89441 36.7428 7.2995 35.2471 7.29785H11.749C10.2533 7.2995 8.81927 7.89441 7.76163 8.95205C6.70398 10.0097 6.10907 11.4437 6.10742 12.9395V40.0605C6.10907 41.5563 6.70398 42.9903 7.76163 44.0479C8.81927 45.1056 10.2533 45.7005 11.749 45.7021H35.2471C36.7428 45.7005 38.1768 45.1056 39.2345 44.0479C40.2921 42.9903 40.887 41.5563 40.8887 40.0605V28.4119L37.7832 31.5174ZM48.1726 20.7968C48.6069 20.3251 48.842 19.7036 48.8287 19.0625C48.8153 18.4214 48.5547 17.8103 48.1011 17.357C47.6476 16.9037 47.0364 16.6433 46.3953 16.6302C45.7542 16.6172 45.1329 16.8526 44.6613 17.2871L48.1726 20.7968Z" fill="#EAE2B6"/>
<path id="Vector_3" d="M28.8861 33.0579L44.0377 17.9062L47.5512 21.4197L32.3995 36.5714L28.8861 33.0579ZM26.5546 37.8267L25.8885 39.205C25.8631 39.257 25.8546 39.3156 25.8642 39.3727C25.8737 39.4298 25.9008 39.4824 25.9418 39.5233C25.9827 39.5642 26.0353 39.5914 26.0924 39.6009C26.1494 39.6105 26.2081 39.602 26.2601 39.5766L27.6384 38.9105L26.5546 37.8267ZM28.0333 38.7195L31.586 37.0022L28.4624 33.8786L26.7456 37.4318L28.0333 38.7195Z" fill="#EAE2B6"/>
</g>
</svg>
