<svg width="58" height="58" viewBox="0 0 58 58" fill="none" xmlns="http://www.w3.org/2000/svg">
<g id="&#232;&#141;&#175;&#231;&#174;&#177; 1">
<path id="Vector" d="M43.5 14.5H41.6875C41.686 12.5776 40.9217 10.7344 39.5624 9.37513C38.2031 8.01582 36.3599 7.2515 34.4375 7.25H23.5625C21.6401 7.2515 19.7969 8.01582 18.4376 9.37513C17.0783 10.7344 16.314 12.5776 16.3125 14.5H14.5C12.5776 14.5015 10.7344 15.2658 9.37513 16.6251C8.01582 17.9844 7.2515 19.8276 7.25 21.75V43.5C7.2515 45.4224 8.01582 47.2656 9.37513 48.6249C10.7344 49.9842 12.5776 50.7485 14.5 50.75H43.5C45.4224 50.7485 47.2656 49.9842 48.6249 48.6249C49.9842 47.2656 50.7485 45.4224 50.75 43.5V21.75C50.7485 19.8276 49.9842 17.9844 48.6249 16.6251C47.2656 15.2658 45.4224 14.5015 43.5 14.5ZM23.5625 10.875H34.4375C35.3984 10.8765 36.3196 11.2589 36.9991 11.9384C37.6786 12.6179 38.061 13.5391 38.0625 14.5H19.9375C19.939 13.5391 20.3214 12.6179 21.0009 11.9384C21.6804 11.2589 22.6016 10.8765 23.5625 10.875ZM47.125 43.5C47.1235 44.4609 46.7411 45.3821 46.0616 46.0616C45.3821 46.7411 44.4609 47.1235 43.5 47.125H14.5C13.5391 47.1235 12.6179 46.7411 11.9384 46.0616C11.2589 45.3821 10.8765 44.4609 10.875 43.5V21.75C10.8765 20.7891 11.2589 19.8679 11.9384 19.1884C12.6179 18.5089 13.5391 18.1265 14.5 18.125H43.5C44.4609 18.1265 45.3821 18.5089 46.0616 19.1884C46.7411 19.8679 47.1235 20.7891 47.125 21.75V43.5Z" fill="#EAE2B6"/>
<path id="Vector_2" d="M32.8514 22.3731C31.8301 21.3555 30.4472 20.7841 29.0055 20.7841C27.5638 20.7841 26.1809 21.3555 25.1596 22.3731L18.7479 28.7791C18.2427 29.2841 17.8419 29.8836 17.5685 30.5435C17.295 31.2034 17.1543 31.9107 17.1543 32.625C17.1543 33.3393 17.295 34.0466 17.5685 34.7065C17.8419 35.3664 18.2427 35.9659 18.7479 36.4709L25.154 42.877C26.1747 43.8976 27.5592 44.4711 29.0027 44.4711C30.4462 44.4711 31.8306 43.8976 32.8514 42.877L39.2518 36.4709C40.2694 35.4496 40.8407 34.0667 40.8407 32.625C40.8407 31.1833 40.2694 29.8004 39.2518 28.7791L32.8514 22.3731ZM36.6973 33.9051L30.2799 40.3168C29.9394 40.6544 29.4794 40.8438 28.9999 40.8438C28.5204 40.8438 28.0603 40.6544 27.7198 40.3168L21.3081 33.9051C20.9705 33.5646 20.7811 33.1045 20.7811 32.625C20.7811 32.1455 20.9705 31.6854 21.3081 31.3449L27.7198 24.9219C28.0603 24.5843 28.5204 24.3949 28.9999 24.3949C29.4794 24.3949 29.9394 24.5843 30.2799 24.9219L36.6917 31.3449C37.0292 31.6854 37.2187 32.1455 37.2187 32.625C37.2187 33.1045 37.0292 33.5646 36.6917 33.9051H36.6973Z" fill="#EAE2B6"/>
<path id="Vector_3" d="M32.625 30.8125H30.8125V29C30.8125 28.5193 30.6215 28.0583 30.2816 27.7184C29.9417 27.3785 29.4807 27.1875 29 27.1875C28.5193 27.1875 28.0583 27.3785 27.7184 27.7184C27.3785 28.0583 27.1875 28.5193 27.1875 29V30.8125H25.375C24.8943 30.8125 24.4333 31.0035 24.0934 31.3434C23.7535 31.6833 23.5625 32.1443 23.5625 32.625C23.5625 33.1057 23.7535 33.5667 24.0934 33.9066C24.4333 34.2465 24.8943 34.4375 25.375 34.4375H27.1875V36.25C27.1875 36.7307 27.3785 37.1917 27.7184 37.5316C28.0583 37.8715 28.5193 38.0625 29 38.0625C29.4807 38.0625 29.9417 37.8715 30.2816 37.5316C30.6215 37.1917 30.8125 36.7307 30.8125 36.25V34.4375H32.625C33.1057 34.4375 33.5667 34.2465 33.9066 33.9066C34.2465 33.5667 34.4375 33.1057 34.4375 32.625C34.4375 32.1443 34.2465 31.6833 33.9066 31.3434C33.5667 31.0035 33.1057 30.8125 32.625 30.8125Z" fill="#EAE2B6"/>
</g>
</svg>
