<svg width="66" height="66" viewBox="0 0 66 66" fill="none" xmlns="http://www.w3.org/2000/svg">
<g id="&#229;&#191;&#171;&#233;&#128;&#159;&#229;&#183;&#165;&#228;&#189;&#156;&#230;&#181;&#129; 2">
<path id="Vector" d="M54.175 39.325C53.625 38.775 53.075 38.225 52.525 37.95C51.425 37.4 50.325 37.125 48.95 37.125C49.225 35.75 49.5 34.375 49.5 33C49.5 31.625 49.225 30.25 48.95 28.875C50.05 29.15 51.425 28.875 52.525 28.05C53.075 27.775 53.625 27.225 54.175 26.675C54.725 28.6 55 30.8 55 33C55 35.2 54.725 37.4 54.175 39.325ZM48.95 48.125C45.925 51.15 42.35 53.35 37.95 54.45C38.225 53.9 38.5 53.075 38.5 52.25C38.5 50.875 37.95 49.775 37.4 48.95C40.15 48.125 42.625 46.75 44.55 44.825C45.1 45.925 45.925 46.75 46.75 47.575C47.575 47.85 48.4 48.125 48.95 48.125ZM11.825 26.675C12.375 27.225 12.925 27.775 13.475 28.05C14.575 28.6 15.675 28.875 17.05 28.875C16.775 30.25 16.5 31.625 16.5 33C16.5 34.375 16.775 35.75 17.05 37.125C15.95 36.85 14.575 37.125 13.475 37.95C12.925 38.225 12.375 38.775 11.825 39.325C11.275 37.4 11 35.2 11 33C11 30.8 11.275 28.6 11.825 26.675ZM17.05 17.875C20.075 14.85 23.65 12.65 28.05 11.55C27.775 12.375 27.5 12.925 27.5 13.75C27.5 15.125 28.05 16.225 28.6 17.05C25.85 17.875 23.375 19.25 21.45 21.175C20.9 20.075 20.075 19.25 18.975 18.7C18.425 18.15 17.6 17.875 17.05 17.875ZM17.05 48.125C17.875 48.125 18.425 47.85 19.25 47.3C20.35 46.75 21.175 45.65 21.45 44.55C23.375 46.475 25.85 47.85 28.6 48.675C28.05 49.775 27.5 50.875 27.5 52.25C27.5 53.075 27.775 53.625 28.05 54.45C23.65 53.35 19.8 51.15 17.05 48.125ZM48.95 17.875C48.125 17.875 47.575 18.15 46.75 18.7C45.65 19.25 44.825 20.35 44.55 21.45C42.625 19.525 40.15 18.15 37.4 17.325C37.95 16.225 38.5 15.125 38.5 13.75C38.5 12.925 38.225 12.375 37.95 11.55C42.35 12.65 46.2 14.85 48.95 17.875ZM33 16.5C31.35 16.5 30.25 15.4 30.25 13.75C30.25 12.1 31.35 11 33 11C34.65 11 35.75 12.1 35.75 13.75C35.75 15.4 34.65 16.5 33 16.5ZM33 55C31.35 55 30.25 53.9 30.25 52.25C30.25 50.6 31.35 49.5 33 49.5C34.65 49.5 35.75 50.6 35.75 52.25C35.75 53.9 34.65 55 33 55ZM47.3 24.75C46.475 23.375 47.025 21.725 48.4 20.9C49.5 20.35 51.425 20.625 51.975 22C52.525 23.375 52.25 25.025 50.875 25.85C49.775 26.4 48.125 26.125 47.3 24.75ZM14.025 44C13.2 42.625 13.75 40.975 15.125 40.15C16.5 39.325 18.15 39.875 18.975 41.25C19.8 42.625 19.25 44.275 17.875 45.1C16.5 45.925 14.575 45.375 14.025 44ZM18.7 24.75C17.875 26.125 16.225 26.4 14.85 25.85C13.75 25.025 13.2 23.375 14.025 22C14.575 20.625 16.5 20.35 17.6 20.9C18.975 21.725 19.525 23.375 18.7 24.75ZM51.975 44C51.15 45.375 49.5 45.65 48.125 45.1C46.75 44.55 46.475 42.625 47.025 41.25C47.575 39.875 49.5 39.6 50.875 40.15C52.25 40.975 52.8 42.625 51.975 44ZM33.825 29.975H43.45L31.625 41.8V36.575H22L33.825 24.75V29.975Z" fill="#EAE2B6"/>
</g>
</svg>
