<svg width="38" height="38" viewBox="0 0 38 38" fill="none" xmlns="http://www.w3.org/2000/svg">
<g id="_&#228;&#184;&#173;&#232;&#139;&#177; 9" clip-path="url(#clip0_1349_144104)">
<path id="Vector" d="M21.7143 29.8571H5.42857C5.07213 29.8571 4.71917 29.7869 4.38986 29.6505C4.06055 29.5141 3.76133 29.3142 3.50928 29.0621C3.25724 28.8101 3.0573 28.5109 2.9209 28.1816C2.78449 27.8523 2.71429 27.4993 2.71429 27.1429V5.42857C2.71429 4.7087 3.00025 4.01831 3.50928 3.50928C4.01831 3.00025 4.7087 2.71429 5.42857 2.71429H27.1429C27.4993 2.71429 27.8523 2.78449 28.1816 2.9209C28.5109 3.0573 28.8101 3.25724 29.0621 3.50928C29.3142 3.76133 29.5141 4.06055 29.6505 4.38986C29.7869 4.71917 29.8571 5.07213 29.8571 5.42857V16.5029C29.8572 16.8628 30.0002 17.2079 30.2547 17.4624C30.5092 17.7168 30.8544 17.8598 31.2143 17.8598C31.5742 17.8598 31.9193 17.7168 32.1739 17.4624C32.4284 17.2079 32.5714 16.8628 32.5714 16.5029V5.42857C32.5714 4.71568 32.431 4.00977 32.1582 3.35115C31.8854 2.69252 31.4855 2.09408 30.9814 1.58999C30.4773 1.0859 29.8789 0.686037 29.2203 0.413225C28.5617 0.140414 27.8557 -4.87327e-09 27.1429 0L5.42857 0C3.98883 0 2.60805 0.571937 1.58999 1.58999C0.571937 2.60805 0 3.98883 0 5.42857L0 27.1429C-4.87327e-09 27.8557 0.140414 28.5617 0.413225 29.2203C0.686037 29.8789 1.0859 30.4773 1.58999 30.9814C2.09408 31.4855 2.69252 31.8854 3.35115 32.1582C4.00977 32.431 4.71568 32.5714 5.42857 32.5714H21.7143C22.0742 32.5714 22.4193 32.4284 22.6738 32.1739C22.9282 31.9193 23.0712 31.5742 23.0712 31.2143C23.0712 30.8544 22.9282 30.5092 22.6738 30.2547C22.4193 30.0002 22.0742 29.8572 21.7143 29.8571ZM5.83571 21.3071C5.70789 21.184 5.60601 21.0365 5.53609 20.8733C5.46616 20.7102 5.42961 20.5346 5.42857 20.3571V9.5C5.43552 9.14224 5.58074 8.80107 5.83376 8.54804C6.08678 8.29502 6.42795 8.14981 6.78571 8.14286H14.9286C15.2885 8.14286 15.6337 8.28584 15.8882 8.54035C16.1427 8.79487 16.2857 9.14006 16.2857 9.5C16.2857 9.85994 16.1427 10.2051 15.8882 10.4596C15.6337 10.7142 15.2885 10.8571 14.9286 10.8571H8.14286V13.5714H14.9286C15.2885 13.5715 15.6336 13.7145 15.8881 13.969C16.1425 14.2235 16.2855 14.5687 16.2855 14.9286C16.2855 15.2885 16.1425 15.6336 15.8881 15.8881C15.6336 16.1426 15.2885 16.2857 14.9286 16.2857H8.14286V19H14.9286C15.2885 19.0001 15.6336 19.1431 15.8881 19.3976C16.1425 19.6521 16.2855 19.9972 16.2855 20.3571C16.2855 20.717 16.1425 21.0622 15.8881 21.3167C15.6336 21.5712 15.2885 21.7142 14.9286 21.7143H6.78571C6.60821 21.7133 6.4327 21.6767 6.26955 21.6068C6.10639 21.5368 5.95888 21.435 5.83571 21.3071ZM19 20.4386V13.8971C19 13.0286 19.4614 12.54 20.2757 12.5129C20.4205 12.5056 20.5654 12.5274 20.7016 12.577C20.8379 12.6265 20.9628 12.7029 21.0691 12.8016C21.1753 12.9003 21.2608 13.0192 21.3203 13.1514C21.3798 13.2837 21.4123 13.4265 21.4157 13.5714C21.6831 13.2147 22.0394 12.9342 22.4489 12.758C22.8585 12.5818 23.3071 12.516 23.75 12.5671C24.1836 12.5334 24.6194 12.5898 25.0301 12.7329C25.4407 12.8759 25.8173 13.1025 26.136 13.3983C26.4548 13.6941 26.7088 14.0527 26.8821 14.4516C27.0554 14.8504 27.1442 15.2809 27.1429 15.7157V20.4386C27.1519 20.6156 27.1222 20.7924 27.056 20.9568C26.9899 21.1212 26.8887 21.2692 26.7596 21.3906C26.6304 21.5119 26.4765 21.6038 26.3083 21.6597C26.1401 21.7156 25.9618 21.7342 25.7857 21.7143C25.6105 21.7296 25.4341 21.7078 25.268 21.6502C25.1018 21.5927 24.9497 21.5007 24.8216 21.3802C24.6935 21.2598 24.5922 21.1137 24.5245 20.9514C24.4568 20.7891 24.4241 20.6144 24.4286 20.4386V16.2857C24.4286 15.2271 24.1029 14.63 23.0714 14.5486C22.04 14.4671 21.7143 15.0643 21.7143 16.2857V20.4386C21.7188 20.6144 21.6861 20.7891 21.6184 20.9514C21.5506 21.1137 21.4494 21.2598 21.3213 21.3802C21.1932 21.5007 21.041 21.5927 20.8749 21.6502C20.7087 21.7078 20.5323 21.7296 20.3571 21.7143C20.181 21.7342 20.0027 21.7156 19.8346 21.6597C19.6664 21.6038 19.5124 21.5119 19.3833 21.3906C19.2542 21.2692 19.153 21.1212 19.0868 20.9568C19.0206 20.7924 18.991 20.6156 19 20.4386ZM31.2143 19C31.5742 19 31.9194 19.143 32.1739 19.3975C32.4284 19.652 32.5714 19.9972 32.5714 20.3571V36.6429C32.5714 37.0028 32.4284 37.348 32.1739 37.6025C31.9194 37.857 31.5742 38 31.2143 38C30.8543 38 30.5092 37.857 30.2546 37.6025C30.0001 37.348 29.8571 37.0028 29.8571 36.6429V20.3571C29.8571 19.9972 30.0001 19.652 30.2546 19.3975C30.5092 19.143 30.8543 19 31.2143 19ZM26.0571 24.4286H36.3714C36.5853 24.4286 36.7971 24.4707 36.9947 24.5525C37.1922 24.6344 37.3718 24.7543 37.523 24.9056C37.6742 25.0568 37.7942 25.2363 37.876 25.4339C37.9579 25.6315 38 25.8433 38 26.0571V30.9429C38 31.1567 37.9579 31.3685 37.876 31.5661C37.7942 31.7637 37.6742 31.9432 37.523 32.0944C37.3718 32.2457 37.1922 32.3656 36.9947 32.4475C36.7971 32.5293 36.5853 32.5714 36.3714 32.5714H26.0571C25.8433 32.5714 25.6315 32.5293 25.4339 32.4475C25.2363 32.3656 25.0568 32.2457 24.9056 32.0944C24.7543 31.9432 24.6344 31.7637 24.5525 31.5661C24.4707 31.3685 24.4286 31.1567 24.4286 30.9429V26.0571C24.4286 25.8433 24.4707 25.6315 24.5525 25.4339C24.6344 25.2363 24.7543 25.0568 24.9056 24.9056C25.0568 24.7543 25.2363 24.6344 25.4339 24.5525C25.6315 24.4707 25.8433 24.4286 26.0571 24.4286ZM27.6857 27.1429C27.6144 27.1429 27.5438 27.1569 27.478 27.1842C27.4121 27.2115 27.3523 27.2514 27.3019 27.3019C27.2514 27.3523 27.2115 27.4121 27.1842 27.478C27.1569 27.5438 27.1429 27.6144 27.1429 27.6857V29.3143C27.1429 29.3856 27.1569 29.4562 27.1842 29.522C27.2115 29.5879 27.2514 29.6477 27.3019 29.6981C27.3523 29.7486 27.4121 29.7885 27.478 29.8158C27.5438 29.8431 27.6144 29.8571 27.6857 29.8571H34.7429C34.8141 29.8571 34.8847 29.8431 34.9506 29.8158C35.0165 29.7885 35.0763 29.7486 35.1267 29.6981C35.1771 29.6477 35.2171 29.5879 35.2444 29.522C35.2717 29.4562 35.2857 29.3856 35.2857 29.3143V27.6857C35.2857 27.6144 35.2717 27.5438 35.2444 27.478C35.2171 27.4121 35.1771 27.3523 35.1267 27.3019C35.0763 27.2514 35.0165 27.2115 34.9506 27.1842C34.8847 27.1569 34.8141 27.1429 34.7429 27.1429H27.6857Z" fill="#EAE2B6"/>
</g>
<defs>
<clipPath id="clip0_1349_144104">
<rect width="38" height="38" fill="white"/>
</clipPath>
</defs>
</svg>
