<svg width="53" height="53" viewBox="0 0 53 53" fill="none" xmlns="http://www.w3.org/2000/svg">
<g id="&#228;&#188;&#152;&#230;&#131;&#160; 1">
<path id="Vector" d="M30.5945 33.1939C30.1673 33.1851 29.7601 33.0109 29.4585 32.708C29.157 32.4051 28.9847 31.9971 28.9779 31.5698C28.971 31.1425 29.1301 30.7292 29.4217 30.4168C29.7134 30.1043 30.1148 29.9172 30.5415 29.8946H30.5959C30.8125 29.8947 31.027 29.9375 31.2271 30.0205C31.4272 30.1034 31.609 30.225 31.7621 30.3783C31.9153 30.5315 32.0367 30.7134 32.1195 30.9136C32.2023 31.1138 32.2449 31.3283 32.2448 31.5449C32.2447 31.7616 32.202 31.976 32.119 32.1762C32.036 32.3763 31.9144 32.5581 31.7612 32.7112C31.608 32.8643 31.4261 32.9857 31.2259 33.0686C31.0257 33.1514 30.8112 33.194 30.5945 33.1939ZM30.5945 27.8515C30.1095 27.8516 29.6292 27.9472 29.1812 28.1329C28.7331 28.3186 28.326 28.5907 27.9831 28.9337C27.6402 29.2768 27.3682 29.684 27.1827 30.1321C26.9971 30.5803 26.9017 31.0606 26.9018 31.5456C26.9018 32.0306 26.9975 32.5109 27.1832 32.959C27.3689 33.407 27.641 33.8141 27.984 34.157C28.327 34.5 28.7343 34.7719 29.1824 34.9575C29.6305 35.143 30.1108 35.2384 30.5959 35.2384C31.5754 35.2384 32.5149 34.8492 33.2075 34.1566C33.9002 33.4639 34.2893 32.5245 34.2893 31.5449C34.2893 30.5654 33.9002 29.6259 33.2075 28.9333C32.5149 28.2406 31.5754 27.8515 30.5959 27.8515M22.3689 21.6637C22.7937 21.6764 23.1973 21.8522 23.4959 22.1547C23.7944 22.4572 23.9648 22.8632 23.9718 23.2881C23.9788 23.713 23.8218 24.1243 23.5334 24.4365C23.245 24.7487 22.8474 24.9377 22.4233 24.9643H22.3676C21.9463 24.9403 21.5501 24.7559 21.2604 24.449C20.9707 24.1422 20.8094 23.7361 20.8095 23.3141C20.8097 22.892 20.9714 22.4861 21.2613 22.1795C21.5513 21.8728 21.9476 21.6888 22.3689 21.6651M22.3689 27.0114C23.3483 27.0118 24.2877 26.6231 24.9805 25.9308C25.6733 25.2385 26.0627 24.2994 26.063 23.32C26.0634 22.3406 25.6747 21.4012 24.9824 20.7084C24.2901 20.0156 23.351 19.6262 22.3716 19.6259H22.3676C21.4054 19.6517 20.4912 20.052 19.8197 20.7418C19.1482 21.4315 18.7724 22.3561 18.7724 23.3187C18.7724 24.2813 19.1482 25.2059 19.8197 25.8956C20.4912 26.5853 21.4054 26.9857 22.3676 27.0114M33.8633 20.0512C33.5913 19.7793 33.2224 19.6266 32.8378 19.6266C32.4532 19.6266 32.0843 19.7793 31.8122 20.0512L19.1002 32.7633C18.8555 33.0403 18.7257 33.4001 18.7372 33.7695C18.7486 34.1389 18.9005 34.4901 19.1618 34.7514C19.4231 35.0127 19.7743 35.1646 20.1437 35.176C20.5131 35.1875 20.8729 35.0577 21.1499 34.813L33.8633 22.0997C34.1347 21.8285 34.2873 21.4607 34.2876 21.077C34.2878 20.6934 34.1357 20.3254 33.8646 20.0539V20.0512M26.4102 5.29999C26.273 5.30285 26.1383 5.33662 26.016 5.39879C25.8937 5.46096 25.7871 5.54993 25.704 5.65906L22.4975 9.62346C22.2139 9.97326 21.7157 10.18 21.2427 10.18C21.0704 10.18 20.8982 10.1535 20.7418 10.0925L15.9851 8.26401C15.8681 8.21809 15.7437 8.19428 15.6181 8.19379C15.1914 8.19379 14.8363 8.49324 14.7608 8.97156L13.9658 14.0066C13.8677 14.6161 13.29 15.1938 12.6805 15.2918L7.64554 16.0868C7.03604 16.1822 6.71804 16.7347 6.93799 17.3111L8.76649 22.0705C8.98776 22.6442 8.77576 23.4353 8.29611 23.8235L4.33436 27.03C3.85339 27.4195 3.85339 28.0555 4.33436 28.4438L8.29611 31.6503C8.77576 32.0385 8.98776 32.8295 8.76649 33.4059L6.93799 38.1626C6.71539 38.7403 7.03471 39.2915 7.64554 39.3869L12.6805 40.1819C13.29 40.2787 13.8677 40.8577 13.9658 41.4672L14.7608 46.5022C14.8363 46.9818 15.1914 47.28 15.6181 47.28C15.7432 47.2792 15.8672 47.2554 15.9838 47.2097L20.7418 45.3812C20.9035 45.3216 21.0731 45.2898 21.2427 45.2911C21.7157 45.2911 22.2139 45.4992 22.4975 45.8503L25.7053 49.812C25.7877 49.9221 25.8942 50.0119 26.0166 50.0746C26.139 50.1372 26.274 50.1712 26.4115 50.1738C26.6672 50.1738 26.923 50.0545 27.1177 49.812L30.3242 45.8503C30.6091 45.5005 31.106 45.2911 31.5777 45.2911C31.7526 45.2911 31.9235 45.3216 32.0785 45.3799L36.8379 47.2084C36.954 47.254 37.0776 47.2778 37.2023 47.2786C37.6303 47.2786 37.9854 46.9818 38.0609 46.5022L38.8572 41.4672C38.954 40.8577 39.533 40.2813 40.1425 40.1846L45.1775 39.3883C45.787 39.2915 46.105 38.7403 45.8837 38.1626L44.0552 33.4059C43.8326 32.8282 44.0446 32.0385 44.5256 31.6503L48.4887 28.4438C48.9683 28.0555 48.9683 27.4209 48.4887 27.0313L44.5243 23.8235C44.0433 23.4339 43.8326 22.6442 44.0539 22.0705L45.8824 17.3111C46.105 16.7347 45.787 16.1835 45.1762 16.0881L40.1412 15.2918C39.5317 15.1938 38.954 14.6161 38.8559 14.0066L38.0609 8.97156C37.9854 8.49324 37.6303 8.19379 37.2023 8.19379C37.0772 8.19471 36.9532 8.21851 36.8366 8.26401L32.0799 10.0925C31.9195 10.1532 31.7491 10.1833 31.5777 10.1813C31.106 10.1813 30.6078 9.97326 30.3242 9.62346L27.1177 5.66171C27.0349 5.55178 26.9282 5.46209 26.8056 5.39943C26.683 5.33677 26.5478 5.30277 26.4102 5.29999ZM26.4102 9.08419L27.6424 10.6079C28.672 11.8773 30.2951 12.6352 31.9884 12.6352C32.6562 12.6352 33.3015 12.5186 33.907 12.2854L35.7369 11.5831L36.0429 13.5176C36.406 15.8125 38.3352 17.7417 40.6274 18.1048L42.5646 18.4095L41.8623 20.2394C41.0289 22.4071 41.7338 25.0412 43.5398 26.504L45.0635 27.7362L43.5398 28.9698C41.7338 30.4326 41.0289 33.0654 41.861 35.2331L42.5646 37.0629L40.6274 37.369C38.3352 37.732 36.406 39.6612 36.0429 41.9535L35.7382 43.8919L33.907 43.187C33.2941 42.953 32.6432 42.8344 31.9871 42.8372C30.2951 42.8372 28.672 43.5965 27.6424 44.8645L26.4102 46.3882L25.1779 44.8645C24.1484 43.5965 22.524 42.8372 20.8333 42.8372C20.1655 42.8372 19.5189 42.9552 18.9133 43.187L17.0848 43.8919L16.7761 41.9548C16.4144 39.6599 14.4852 37.732 12.1916 37.3703L10.2545 37.0629L10.958 35.2344C11.7928 33.0667 11.0839 30.4326 9.27926 28.9711L7.75684 27.7375L9.28059 26.504C11.0852 25.0425 11.7928 22.4084 10.9594 20.2394L10.2545 18.4109L12.1903 18.1048C14.4852 17.7417 16.4144 15.8125 16.7761 13.519L17.0835 11.5831L18.9133 12.2854C19.5189 12.5186 20.1655 12.6365 20.8319 12.6365C22.524 12.6365 24.1484 11.8773 25.1753 10.6066L26.4102 9.08286" fill="#EAE2B6"/>
</g>
</svg>
