<svg width="55" height="55" viewBox="0 0 55 55" fill="none" xmlns="http://www.w3.org/2000/svg">
<g id="VIP-3 1">
<path id="Vector" d="M36.6951 30.4872V49.24H40.6358V42.4303C46.9344 42.5237 50.1277 42.2434 51.0126 36.8682C51.2929 35.2963 50.7323 33.532 50.0343 32.5647C47.9567 29.7507 41.7076 30.4487 36.6951 30.4872ZM40.6358 39.2425V33.7739C43.5598 33.6804 46.6541 33.3562 47.1653 35.7195C48.0062 39.6712 43.9225 39.336 40.6358 39.2425ZM29.1049 30.5806C29.1489 36.7858 29.1489 43.0349 29.1983 49.24H33.0457V30.4872C31.7486 30.5421 30.446 30.5421 29.1049 30.5806ZM36.5632 5.48517C30.4899 11.5474 24.4332 17.5657 18.316 23.639V5.48517H3.63574C3.67971 6.68883 3.67971 7.93645 3.72918 9.14561H7.29618V49.2126C21.883 34.6148 36.4258 20.072 51.0126 5.48517H36.5632Z" fill="url(#paint0_linear_1349_144076)"/>
</g>
<defs>
<linearGradient id="paint0_linear_1349_144076" x1="27.361" y1="5.48517" x2="27.361" y2="49.24" gradientUnits="userSpaceOnUse">
<stop offset="0.364583" stop-color="#D2C5A0"/>
<stop offset="0.640625" stop-color="#EAE3B6"/>
<stop offset="1" stop-color="#EAE3B6"/>
</linearGradient>
</defs>
</svg>
