<svg width="55" height="55" viewBox="0 0 55 55" fill="none" xmlns="http://www.w3.org/2000/svg">
<g id="VIP-3 1">
<path id="Vector" d="M36.6951 30.4871V49.24H40.6358V42.4302C46.9344 42.5237 50.1277 42.2434 51.0126 36.8681C51.2929 35.2962 50.7323 33.532 50.0343 32.5647C47.9567 29.7506 41.7076 30.4486 36.6951 30.4871ZM40.6358 39.2425V33.7738C43.5598 33.6804 46.6541 33.3561 47.1653 35.7194C48.0062 39.6712 43.9225 39.3359 40.6358 39.2425ZM29.1049 30.5805C29.1489 36.7857 29.1489 43.0348 29.1983 49.24H33.0457V30.4871C31.7486 30.5421 30.446 30.5421 29.1049 30.5805ZM36.5632 5.48511C30.4899 11.5474 24.4332 17.5657 18.316 23.6389V5.48511H3.63574C3.67971 6.68876 3.67971 7.93639 3.72918 9.14555H7.29618V49.2125C21.883 34.6147 36.4258 20.0719 51.0126 5.48511H36.5632Z" fill="url(#paint0_linear_1349_144220)"/>
</g>
<defs>
<linearGradient id="paint0_linear_1349_144220" x1="27.361" y1="5.48511" x2="27.361" y2="49.24" gradientUnits="userSpaceOnUse">
<stop offset="0.364583" stop-color="#D2C5A0"/>
<stop offset="0.640625" stop-color="#EAE3B6"/>
<stop offset="1" stop-color="#EAE3B6"/>
</linearGradient>
</defs>
</svg>
